<?xml version='1.0' encoding='iso-8859-1'?>
<!DOCTYPE svg PUBLIC '-//W3C//DTD SVG 1.1//EN' 'http://www.w3.org/Graphics/SVG/1.1/DTD/svg11.dtd'>
<svg version="1.1" xmlns="http://www.w3.org/2000/svg" viewBox="0 0 453.841 453.841" xmlns:xlink="http://www.w3.org/1999/xlink" enable-background="new 0 0 453.841 453.841">
  <g>
    <path fill="white" d="m327.314,244.012c0-22.336-18.171-40.507-40.507-40.507h-19.379v-17.648c0-22.336-18.172-40.508-40.508-40.508s-40.508,18.172-40.508,40.508v17.648h-19.379c-22.336,0-40.508,18.172-40.508,40.508s18.172,40.507 40.508,40.507h19.379v111.721c0,22.336 18.172,40.508 40.508,40.508s40.508-18.172 40.508-40.508v-111.721h19.379c22.337,0 40.507-18.172 40.507-40.508zm-40.506,15.508h-31.879c-6.903,0-12.5,5.596-12.5,12.5v124.221c0,8.551-6.957,15.508-15.508,15.508s-15.508-6.957-15.508-15.508v-124.221c0-6.904-5.597-12.5-12.5-12.5h-31.879c-8.551,0-15.508-6.957-15.508-15.508 0-8.551 6.957-15.507 15.508-15.507h31.879c6.903,0 12.5-5.596 12.5-12.5v-30.148c0-8.551 6.957-15.508 15.508-15.508s15.508,6.957 15.508,15.508v30.148c0,6.904 5.597,12.5 12.5,12.5h31.879c8.551,0 15.507,6.957 15.507,15.508-0.001,8.55-6.957,15.507-15.507,15.507z"/>
    <path fill="white" d="m227.974,119.311c6.903,0 12.5-5.596 12.5-12.5v-77.219c0-6.904-5.597-12.5-12.5-12.5s-12.5,5.596-12.5,12.5v77.219c0,6.903 5.596,12.5 12.5,12.5z"/>
    <path fill="white" d="m441.341,232.566h-77.219c-6.903,0-12.5,5.597-12.5,12.5s5.597,12.5 12.5,12.5h77.219c6.903,0 12.5-5.597 12.5-12.5s-5.597-12.5-12.5-12.5z"/>
    <path fill="white" d="m324.682,160.241c3.198,0 6.398-1.221 8.839-3.661l54.603-54.602c4.882-4.882 4.882-12.796 0-17.678-4.882-4.881-12.796-4.881-17.678,0l-54.603,54.602c-4.882,4.881-4.882,12.796 0,17.678 2.441,2.441 5.639,3.661 8.839,3.661z"/>
    <path fill="white" d="m121.811,155.09c2.44,2.441 5.64,3.661 8.839,3.661s6.398-1.22 8.839-3.661c4.882-4.882 4.882-12.796 0-17.678l-54.603-54.601c-4.881-4.881-12.797-4.881-17.678,0-4.882,4.882-4.882,12.796 0,17.678l54.603,54.601z"/>
    <path fill="white" d="m102.219,242.959c0-6.903-5.597-12.5-12.5-12.5h-77.219c-6.903,0-12.5,5.597-12.5,12.5s5.597,12.5 12.5,12.5h77.219c6.903,0 12.5-5.597 12.5-12.5z"/>
    <path fill="white" d="m120.32,331.445l-54.602,54.602c-4.882,4.881-4.882,12.796 0,17.678 2.44,2.441 5.64,3.661 8.839,3.661s6.398-1.22 8.839-3.661l54.602-54.602c4.882-4.881 4.882-12.796 0-17.678-4.881-4.882-12.797-4.882-17.678,0z"/>
    <path fill="white" d="m332.031,332.935c-4.882-4.881-12.796-4.881-17.678,0s-4.882,12.796 0,17.678l54.602,54.602c2.441,2.441 5.64,3.661 8.839,3.661 3.198,0 6.398-1.221 8.839-3.661 4.882-4.881 4.882-12.796 0-17.678l-54.602-54.602z"/>
    <path fill="white" d="m163.845,121.642c1.995,4.813 6.647,7.718 11.553,7.718 1.595,0 3.216-0.307 4.78-0.956 6.378-2.643 9.405-9.956 6.763-16.333l-18.226-43.982c-2.643-6.378-9.958-9.404-16.333-6.762-6.378,2.643-9.405,9.956-6.763,16.333l18.226,43.982z"/>
    <path fill="white" d="m342.535,197.265c1.994,4.814 6.648,7.72 11.554,7.72 1.594,0 3.214-0.307 4.778-0.955l43.981-18.215c6.378-2.642 9.407-9.954 6.766-16.332-2.642-6.378-9.951-9.405-16.332-6.766l-43.981,18.215c-6.378,2.643-9.407,9.955-6.766,16.333z"/>
    <path fill="white" d="m275.612,129.209c1.564,0.648 3.185,0.955 4.779,0.955 4.905,0 9.559-2.905 11.553-7.719l18.226-43.993c2.643-6.378-0.386-13.69-6.764-16.332-6.377-2.642-13.689,0.385-16.332,6.764l-18.226,43.992c-2.642,6.379 0.386,13.691 6.764,16.333z"/>
    <path fill="white" d="m51.797,183.867l43.981,18.216c1.564,0.647 3.185,0.955 4.778,0.955 4.905,0 9.56-2.906 11.554-7.72 2.642-6.378-0.388-13.69-6.766-16.332l-43.981-18.216c-6.378-2.64-13.689,0.388-16.332,6.766-2.641,6.377 0.388,13.689 6.766,16.331z"/>
    <path fill="white" d="m111.305,290.764c-2.642-6.378-9.952-9.406-16.332-6.765l-43.972,18.215c-6.378,2.642-9.406,9.954-6.765,16.332 1.995,4.814 6.648,7.72 11.554,7.72 1.594,0 3.215-0.307 4.779-0.955l43.972-18.215c6.378-2.642 9.406-9.954 6.764-16.332z"/>
    <path fill="white" d="m402.046,304.164l-43.981-18.226c-6.376-2.643-13.69,0.385-16.333,6.762-2.643,6.378 0.385,13.69 6.763,16.333l43.981,18.226c1.564,0.648 3.186,0.956 4.78,0.956 4.904,0 9.559-2.905 11.553-7.718 2.642-6.378-0.385-13.69-6.763-16.333z"/>
  </g>
</svg>
